<svg width="25" height="25" viewBox="0 0 25 25" fill="none" xmlns="http://www.w3.org/2000/svg">
<mask id="mask0_602_2893" style="mask-type:luminance" maskUnits="userSpaceOnUse" x="0" y="0" width="25" height="25">
<path d="M0.135254 0.598999H24.1248V24.5834H0.135254V0.598999Z" fill="white"/>
</mask>
<g mask="url(#mask0_602_2893)">
<path d="M12.1769 0.598999C5.52588 0.598999 0.135254 5.98962 0.135254 12.6407C0.135254 19.2917 5.52588 24.6771 12.1769 24.6771C18.828 24.6771 24.2186 19.2917 24.2186 12.6407C24.2082 5.98962 18.8175 0.598999 12.1769 0.598999ZM18.6613 7.98962L16.3175 18.9896C16.203 19.5417 15.5571 19.7813 15.1092 19.448L9.5415 15.2969L15.6925 9.73962C15.6925 9.73962 16.1092 9.39587 15.9946 9.29171C15.8696 9.16671 15.4113 9.43754 15.1821 9.59379C14.9425 9.77087 7.64567 14.3802 7.64567 14.3802L3.94255 13.2344C3.52588 13.1094 3.52588 12.5365 4.13005 12.2813L17.7238 7.05212C18.3175 6.76046 18.7863 7.42712 18.6613 7.98962Z" fill="white"/>
</g>
</svg>
