<svg width="27" height="28" viewBox="0 0 27 28" fill="none" xmlns="http://www.w3.org/2000/svg">
<mask id="mask0_622_3190" style="mask-type:luminance" maskUnits="userSpaceOnUse" x="0" y="0" width="27" height="28">
<path d="M0 0.666504H26.5312V27.3332H0V0.666504Z" fill="white"/>
</mask>
<g mask="url(#mask0_622_3190)">
<path d="M20.9012 16.5155C20.5575 16.5155 20.2762 16.2342 20.2762 15.8905C20.2762 11.1248 16.4012 7.24984 11.6356 7.24984C11.2918 7.24984 11.0158 6.96859 11.0158 6.63005C11.0158 6.2863 11.2918 6.00505 11.6356 6.00505C17.0887 6.00505 21.521 10.4425 21.521 15.8905C21.521 16.2342 21.245 16.5155 20.9012 16.5155ZM20.87 21.4582L15.87 18.6561L16.3595 18.1561C16.5731 17.9425 16.9012 17.8957 17.1616 18.0467L20.6512 20.0623C20.8543 20.1821 20.9845 20.4009 20.9741 20.6405C20.9637 20.9269 20.9272 21.203 20.87 21.4582ZM20.5314 22.4946C20.396 22.8175 20.1772 23.0988 19.896 23.3019C15.0939 26.8332 8.01579 19.7655 7.89079 19.6405C7.76058 19.5103 0.692871 12.4373 4.22933 7.63005C4.43246 7.3488 4.7137 7.13525 5.03141 6.99984C5.19808 6.92692 5.39079 6.8488 5.61475 6.78109L8.53662 11.9842L7.51058 12.9894C7.3335 13.1665 7.2762 13.4269 7.36995 13.6561C7.65641 14.3384 8.40641 15.8436 10.0366 17.4946C11.6877 19.1248 13.1877 19.8748 13.87 20.1561C14.0991 20.2498 14.3647 20.1978 14.5366 20.0207L15.5418 18.9894L20.7502 21.9113C20.6772 22.1353 20.6043 22.3332 20.5314 22.4946ZM6.89079 6.55713C7.12516 6.54671 7.34912 6.67171 7.4637 6.87484L9.48454 10.3644C9.63558 10.6248 9.5887 10.9582 9.37516 11.1665L8.86996 11.6561L6.06787 6.6613C6.32308 6.604 6.59912 6.56755 6.89079 6.55713ZM11.0158 9.27067C11.0158 8.92692 11.2918 8.64567 11.6356 8.64567C15.6304 8.64567 18.8804 11.8957 18.8804 15.8905C18.8804 16.2342 18.6043 16.5155 18.2606 16.5155C17.9168 16.5155 17.6356 16.2342 17.6356 15.8905C17.6356 12.5832 14.9429 9.89046 11.6356 9.89046C11.2918 9.89046 11.0158 9.61442 11.0158 9.27067ZM11.6356 11.229C14.2085 11.229 16.3022 13.3228 16.3022 15.8905C16.3022 16.2342 16.021 16.5155 15.6772 16.5155C15.3335 16.5155 15.0575 16.2342 15.0575 15.8905C15.0575 14.005 13.521 12.4738 11.6356 12.4738C11.2918 12.4738 11.0158 12.1925 11.0158 11.8488C11.0158 11.5103 11.2918 11.229 11.6356 11.229ZM22.0366 5.49463C17.1668 0.624837 9.2762 0.624837 4.41162 5.49463C-0.458171 10.3592 -0.458171 18.2498 4.41162 23.1196C9.2762 27.9842 17.1668 27.9842 22.0366 23.1196C26.9012 18.2498 26.9012 10.3592 22.0366 5.49463Z" fill="#FEFEFE"/>
</g>
</svg>
